<?xml version="1.0" standalone="no"?>
<!DOCTYPE svg PUBLIC "-//W3C//DTD SVG 20010904//EN"
 "http://www.w3.org/TR/2001/REC-SVG-20010904/DTD/svg10.dtd">
<svg version="1.0" xmlns="http://www.w3.org/2000/svg"
 width="128.000000pt" height="128.000000pt" viewBox="0 0 128.000000 128.000000"
 preserveAspectRatio="xMidYMid meet">
<metadata>
Created by potrace 1.11, written by Peter Selinger 2001-2013
</metadata>
<g transform="translate(0.000000,128.000000) scale(0.100000,-0.100000)"
fill="#000000" stroke="none">
<path d="M487 1194 c-18 -19 -5 -34 29 -34 28 0 35 3 32 18 -3 17 -48 29 -61
16z"/>
<path d="M610 1180 c0 -16 7 -20 30 -20 23 0 30 4 30 20 0 16 -7 20 -30 20
-23 0 -30 -4 -30 -20z"/>
<path d="M425 1021 c-51 -22 -58 -43 -63 -185 -5 -157 1 -200 33 -232 19 -19
35 -24 75 -24 l50 0 -1 -92 c-1 -119 -6 -133 -44 -133 l-30 0 -3 -157 -3 -158
146 0 145 0 0 143 c0 98 -4 147 -12 155 -7 7 -29 12 -50 12 l-38 0 0 115 0
115 59 0 c49 0 65 4 88 24 l28 24 3 157 c4 163 -3 201 -37 222 -23 14 -318 27
-346 14z m328 -22 c12 -7 25 -17 29 -23 4 -6 8 -86 8 -178 l0 -167 -27 -21
c-26 -20 -37 -21 -186 -18 -208 4 -197 -8 -197 210 0 155 1 159 25 183 23 24
28 25 175 25 95 0 159 -4 173 -11z m-203 -528 c0 -63 -4 -112 -10 -116 -6 -4
-10 35 -10 109 0 71 4 116 10 116 6 0 10 -43 10 -109z m30 -1 c0 -67 -4 -110
-10 -110 -11 0 -14 202 -3 213 12 13 13 7 13 -103z m30 -7 c0 -64 -4 -113 -8
-108 -8 10 -4 225 4 225 2 0 4 -53 4 -117z m-94 -248 c-4 -24 -16 -30 -16 -7
0 12 4 22 9 22 5 0 8 -7 7 -15z m27 -5 c3 -11 1 -20 -4 -20 -5 0 -9 9 -9 20 0
11 2 20 4 20 2 0 6 -9 9 -20z m49 2 c4 -12 -1 -18 -13 -18 -22 0 -21 -1 -13
20 8 21 21 20 26 -2z m25 11 c-4 -3 -2 -12 4 -20 9 -9 8 -13 0 -13 -6 0 -11 2
-11 4 0 2 -3 11 -6 20 -4 10 -1 16 7 16 7 0 9 -3 6 -7z m51 -23 c-2 -7 -11 -5
-23 5 -16 12 -17 14 -2 9 10 -4 17 -1 18 7 0 11 2 11 6 2 2 -7 3 -18 1 -23z
m-137 -49 c7 11 9 9 9 -7 0 -12 -6 -21 -15 -21 -9 0 -15 9 -14 21 0 13 3 16 6
7 5 -11 7 -11 14 0z m49 -22 c0 -3 -7 -6 -15 -6 -15 0 -20 18 -8 30 6 7 22
-10 23 -24z m31 22 c6 10 9 8 9 -8 0 -16 -4 -21 -15 -17 -8 4 -15 14 -14 23 0
12 2 12 6 2 5 -11 7 -11 14 0z m47 -14 c2 -10 -3 -17 -12 -17 -10 0 -16 9 -16
21 0 24 23 21 28 -4z"/>
<path d="M463 3 c76 -2 198 -2 270 0 73 1 11 3 -138 3 -148 0 -208 -2 -132 -3z"/>
</g>
</svg>
